<?xml version="1.0" encoding="utf-8"?>
<!-- Generator: Adobe Illustrator 19.0.0, SVG Export Plug-In . SVG Version: 6.00 Build 0)  -->
<svg version="1.1"  xmlns="http://www.w3.org/2000/svg" xmlns:xlink="http://www.w3.org/1999/xlink" x="0px" y="0px"
	 viewBox="0 0 66.6 64.3" style="enable-background:new 0 0 66.6 64.3;" width="66" height="66" xml:space="preserve">
<style type="text/css">
	.st0{fill:#3A88C6;}
	.st1{fill:#FFFFFF;}
</style>
<polyline id="XMLID_13_" class="st0" points="66.8,35.4 66.8,42.2 66.8,64.5 0,64.5 0,0.1 66.8,0.1 66.8,35.4 "/>
<path id="XMLID_12_" class="st1" d="M67.7,36"/>
<path id="XMLID_11_" class="st1" d="M24.3,31h-2.7l0-7c0,0,0-0.1,0-0.1c-0.3,1-2.3,5.1-2.8,6.7c-0.1,0.3-0.3,0.5-0.6,0.4
	c-0.6,0-1.1,0-1.7,0c-0.3,0-0.5-0.1-0.6-0.4c-0.7-2.1-2.6-6.3-2.6-6.3l-0.2-0.4l0,7.1h-2.6V20.1c0,0,2.4,0,3.4,0
	c0.1,0,0.4,0.5,0.4,0.5l3.1,7.2l3.2-7.3c0,0,0.3-0.3,0.4-0.4c0.9,0,3.3,0,3.3,0V31z"/>
<path id="XMLID_10_" class="st1" d="M23.7,40.8c0,0.9,0,1.6,0,2.5c1.9,0,3.8,0,5.8,0c0,0.7,0,1.4,0,2.1c-2.8,0-5.5,0-8.3,0
	c0-3.6,0-7.2,0-10.8c2.7,0,5.4,0,8.1,0c0,0.7,0,1.3,0,2.1c-1.8,0-3.7,0-5.5,0c0,0.8,0,1.5,0,2.3c1.6,0,3.2,0,4.9,0
	c0,0.7,0,1.3,0,1.9C27,40.8,25.4,40.8,23.7,40.8z"/>
<path id="XMLID_9_" class="st1" d="M47.9,20.1c-1.6,1.8-3.2,3.5-4.7,5.2c1.6,1.8,3.3,3.7,5,5.6c-1.1,0-2.1,0-3.1,0
	c-0.2,0-0.5-0.3-0.6-0.6c-1.2-1.4-2.3-2.8-3.5-4.2c-0.1-0.1-0.1-0.1-0.3-0.3c0,1.7,0,3.3,0,5c-0.9,0-1.7,0-2.5,0c0-3.6,0-7.2,0-10.8
	c0.8,0,1.6,0,2.5,0c0,1.5,0,3,0,4.5c0,0,0.1,0,0.1,0c0.7-0.8,1.4-1.7,2.1-2.5c0.5-0.6,1-1.2,1.6-1.8c0.1-0.1,0.3-0.3,0.5-0.3
	C45.9,20.1,46.8,20.1,47.9,20.1z"/>
<path id="XMLID_8_" class="st1" d="M19.2,35.5c-0.4,0.5-0.7,1.1-1,1.5c-0.8-0.3-1.6-0.6-2.4-0.7c-0.6-0.1-1.2,0-1.8,0.2
	c-0.3,0.1-0.6,0.5-0.6,0.7c0,0.3,0.2,0.7,0.5,0.8c0.6,0.3,1.2,0.5,1.8,0.7c0.7,0.2,1.3,0.4,2,0.7c1.3,0.6,2.1,1.5,2,2.9
	c0,1.4-0.8,2.3-2.1,2.9c-2.4,1-5.5,0.4-7.5-1.3c0.4-0.5,0.8-1.1,1.2-1.6c1,0.7,2,1.3,3.2,1.3c0.6,0,1.2,0,1.8-0.2
	c0.9-0.3,1-1.4,0.2-1.9c-0.4-0.3-1-0.4-1.5-0.6c-0.7-0.2-1.4-0.4-2.1-0.7c-1.4-0.5-2.1-1.5-2.1-2.8c0-1.3,0.8-2.3,2.3-2.8
	C15.1,33.9,17.5,34.3,19.2,35.5z"/>
<path id="XMLID_7_" class="st1" d="M30.8,45.4c0-3.6,0-7.2,0-10.8c0.8,0,1.7,0,2.5,0c0,2.9,0,5.7,0,8.7c1.9,0,3.6,0,5.5,0
	c0,0.7,0,1.4,0,2.1C36.1,45.4,33.5,45.4,30.8,45.4z"/>
<path id="XMLID_6_" class="st1" d="M40.1,34.6c0.8,0,1.6,0,2.5,0c0,2.9,0,5.8,0,8.7c1.9,0,3.6,0,5.5,0c0,0.7,0,1.4,0,2.1
	c-2.6,0-5.3,0-8,0C40.1,41.8,40.1,38.3,40.1,34.6z"/>
<path class="st1" d="M31.3,22.1c1.9,0,3.5,1.5,3.5,3.4s-1.6,3.4-3.5,3.4s-3.5-1.5-3.5-3.4S29.3,22.1,31.3,22.1 M31.3,19.8
	c-3.3,0-6,2.6-6,5.7s2.7,5.7,6,5.7c3.3,0,6-2.6,6-5.7S34.6,19.8,31.3,19.8L31.3,19.8z"/>
<rect id="XMLID_3_" x="49.4" y="34.6" class="st1" width="8.1" height="2"/>
<rect id="XMLID_2_" x="49.4" y="43.3" class="st1" width="8.1" height="2"/>
<rect id="XMLID_1_" x="49.4" y="39" class="st1" width="8.1" height="2"/>
</svg>
